HIERARCHY
ROOT joint_0
{
	OFFSET 0.000000 0.000000 0.000000
	CHANNELS 6 Xposition Yposition Zposition Zrotation Yrotation Xrotation 
	JOINT joint_1
	{
		OFFSET 8.185791 -2.713684 100.414917
		CHANNELS 3 Zrotation Yrotation Xrotation
		JOINT joint_2
		{
			OFFSET -4.376465 -1.111145 91.934082
			CHANNELS 3 Zrotation Yrotation Xrotation
			JOINT joint_3
			{
				OFFSET -6.985840 -1.054016 91.669922
				CHANNELS 3 Zrotation Yrotation Xrotation
				JOINT joint_4
				{
					OFFSET 0.150391 -4.451904 123.526001
					CHANNELS 3 Zrotation Yrotation Xrotation
					JOINT joint_5
					{
						OFFSET 19.754150 -8.123901 80.916992
						CHANNELS 3 Zrotation Yrotation Xrotation
						End Site
						{
							OFFSET 0.000000 0.000000 0.000000
						}
					}
				}
				JOINT joint_6
				{
					OFFSET -6.477539 -28.517334 68.237061
					CHANNELS 3 Zrotation Yrotation Xrotation
					JOINT joint_7
					{
						OFFSET -20.564453 -115.426208 -21.139038
						CHANNELS 3 Zrotation Yrotation Xrotation
						JOINT joint_8
						{
							OFFSET 18.981934 -19.826172 -267.898926
							CHANNELS 3 Zrotation Yrotation Xrotation
							JOINT joint_9
							{
								OFFSET 11.562744 -19.325867 -235.478027
								CHANNELS 3 Zrotation Yrotation Xrotation
								End Site
								{
									OFFSET 0.000000 0.000000 0.000000
								}
							}
						}
					}
				}
				JOINT joint_10
				{
					OFFSET 7.033936 23.504700 70.088989
					CHANNELS 3 Zrotation Yrotation Xrotation
					JOINT joint_11
					{
						OFFSET 36.629639 112.486816 -14.036987
						CHANNELS 3 Zrotation Yrotation Xrotation
						JOINT joint_12
						{
							OFFSET 41.355225 -7.048523 -266.019897
							CHANNELS 3 Zrotation Yrotation Xrotation
							JOINT joint_13
							{
								OFFSET 5.858887 29.785156 -234.603027
								CHANNELS 3 Zrotation Yrotation Xrotation
								End Site
								{
									OFFSET 0.000000 0.000000 0.000000
								}
							}
						}
					}
				}
			}
		}
	}
	JOINT joint_14
	{
		OFFSET -8.917725 -79.985535 -99.035034
		CHANNELS 3 Zrotation Yrotation Xrotation
		JOINT joint_15
		{
			OFFSET -32.739502 -31.478882 -502.570984
			CHANNELS 3 Zrotation Yrotation Xrotation
			JOINT joint_16
			{
				OFFSET 7.393066 -29.352966 -399.008011
				CHANNELS 3 Zrotation Yrotation Xrotation
				JOINT joint_17
				{
					OFFSET 178.013916 -26.060303 -71.875002
					CHANNELS 3 Zrotation Yrotation Xrotation
					End Site
					{
						OFFSET 0.000000 0.000000 0.000000
					}
				}
			}
		}
	}
	JOINT joint_18
	{
		OFFSET 1.900879 81.159851 -98.481018
		CHANNELS 3 Zrotation Yrotation Xrotation
		JOINT joint_19
		{
			OFFSET -15.120850 31.602051 -503.400024
			CHANNELS 3 Zrotation Yrotation Xrotation
			JOINT joint_20
			{
				OFFSET -16.653076 23.887695 -399.091988
				CHANNELS 3 Zrotation Yrotation Xrotation
				JOINT joint_21
				{
					OFFSET 179.618164 -1.217651 -72.592001
					CHANNELS 3 Zrotation Yrotation Xrotation
					End Site
					{
						OFFSET 0.000000 0.000000 0.000000
					}
				}
			}
		}
	}
}
MOTION
Frames: 11
Frame Time: 0.016667
-2544.876221 493.990173 1094.456055 -5.214331 14.198555 -5.149541 5.397708 8.708219 2.575811 8.832161 -1.764230 -0.788787 10.482033 1.637065 -0.223036 -1.217124 -12.307828 -1.783343 0.000000 0.000000 0.000000 -6.576491 7.312854 -3.935808 -5.706357 7.873399 -9.884414 -0.621848 -41.580284 4.132746 0.000000 0.000000 0.000000 1.494134 -0.871011 10.063556 6.407319 5.250986 25.753977 174.891202 -56.969835 124.778870 0.000000 0.000000 0.000000 8.253732 -2.446160 5.378898 5.526311 16.584786 5.333257 6.310763 4.821242 2.674187 0.000000 0.000000 0.000000 8.784961 -52.545464 -12.467188 5.628594 76.258958 10.469233 1.440778 -11.608202 0.179154 0.000000 0.000000 0.000000 
-2515.336670 487.068573 1090.904053 -4.720962 15.197274 -5.270206 4.932960 9.398021 2.299695 9.125984 -1.889661 -0.806425 11.024198 1.765229 -0.274262 -1.537840 -13.309183 -1.934136 0.000000 0.000000 0.000000 -6.503490 7.162558 -4.000626 -6.268649 7.766098 -10.154526 -0.860848 -42.330300 4.976228 0.000000 0.000000 0.000000 1.695772 -2.347102 9.988178 7.985819 4.565141 27.797458 174.100157 -52.041818 123.123343 0.000000 0.000000 0.000000 8.818189 -2.777210 5.680923 6.120205 17.643330 5.663279 7.275640 6.668090 3.188493 0.000000 0.000000 0.000000 7.538005 -53.374623 -12.131683 5.376455 72.215872 8.725349 1.293097 -13.037084 0.634852 0.000000 0.000000 0.000000 
-2485.357422 480.191071 1086.677979 -4.245638 16.130137 -5.359574 4.516234 10.338883 1.870981 9.329572 -2.013279 -0.817488 11.375623 1.850865 -0.337142 -1.945005 -14.335452 -2.039466 0.000000 0.000000 0.000000 -6.397176 6.862721 -4.139726 -6.795070 7.534768 -10.345408 -1.061588 -42.906845 6.067226 0.000000 0.000000 0.000000 1.836655 -4.066649 10.086637 10.046606 3.827949 29.460787 172.665336 -47.379210 120.921370 0.000000 0.000000 0.000000 9.442482 -3.347482 5.924803 6.731630 19.251997 6.153251 8.531550 8.616184 3.793479 0.000000 0.000000 0.000000 6.069699 -53.610368 -11.349776 5.165695 66.744750 6.700710 1.576111 -14.247003 1.052947 0.000000 0.000000 0.000000 
-2454.991211 473.160889 1081.036011 -3.733772 17.071893 -5.405644 4.566954 11.113765 1.510812 9.402444 -2.010157 -0.825933 11.311420 1.873876 -0.392141 -2.374512 -15.101757 -2.074900 0.000000 0.000000 0.000000 -6.397246 6.708696 -4.446851 -7.278121 7.377329 -10.370273 -1.256179 -43.621906 7.216408 0.000000 0.000000 0.000000 2.307550 -5.779752 10.198094 11.036127 3.628474 31.178754 171.120733 -44.559635 120.306498 0.000000 0.000000 0.000000 10.108080 -4.229349 6.033390 7.304866 21.344179 6.998362 10.117597 10.656344 4.496544 0.000000 0.000000 0.000000 4.483028 -53.190784 -10.370214 5.031847 60.327835 4.731623 2.171127 -14.524465 1.299811 0.000000 0.000000 0.000000 
-2424.143311 465.864349 1072.947021 -3.135858 18.130138 -5.318237 5.366003 11.364204 1.233985 9.307613 -1.856138 -0.773289 10.668155 1.903977 -0.389610 -2.792793 -15.421244 -1.981705 0.000000 0.000000 0.000000 -6.607571 6.928427 -4.971413 -7.733092 7.446278 -10.213139 -1.471132 -44.783367 8.366141 0.000000 0.000000 0.000000 3.591167 -7.144980 10.066134 9.096040 4.733449 33.503801 171.462517 -44.656713 122.512629 0.000000 0.000000 0.000000 10.896816 -5.419783 5.870992 7.971635 23.651248 8.390163 12.312918 13.285812 5.453418 0.000000 0.000000 0.000000 2.760478 -51.846087 -9.348436 5.093309 52.362238 2.950224 3.113211 -13.229816 1.455795 0.000000 0.000000 0.000000 
-2392.783447 458.369904 1062.682007 -2.832427 19.039450 -5.265773 7.020745 11.694159 1.054556 9.114626 -1.827151 -0.749613 9.602297 1.952613 -0.322590 -3.227932 -15.412478 -1.747802 0.000000 0.000000 0.000000 -6.994332 7.402011 -5.623199 -8.168744 7.661344 -9.966943 -1.693437 -46.258273 9.605231 0.000000 0.000000 0.000000 5.532351 -8.620874 9.561914 5.860008 6.815979 36.279030 172.253269 -47.039470 126.656406 0.000000 0.000000 0.000000 11.903712 -6.666673 5.540654 8.883428 26.021963 10.267098 15.497222 16.893423 6.845400 0.000000 0.000000 0.000000 1.130942 -49.177828 -8.104794 5.538678 42.210281 1.146457 4.489495 -10.112343 1.733364 0.000000 0.000000 0.000000 
-2361.549561 450.645660 1052.692993 -2.820469 19.513437 -5.499434 8.858399 12.695202 1.366267 8.976091 -2.052144 -0.991680 8.710353 2.013281 -0.248037 -3.660854 -15.298592 -1.531313 0.000000 0.000000 0.000000 -7.481153 7.857497 -6.115407 -8.545629 7.862811 -9.772866 -1.883028 -47.538578 10.590223 0.000000 0.000000 0.000000 7.258419 -10.241976 8.836395 3.351128 8.982014 38.943882 172.239615 -49.366458 130.938267 0.000000 0.000000 0.000000 12.430323 -8.123746 5.276791 9.215856 29.454117 12.234560 18.913104 19.833734 8.187875 0.000000 0.000000 0.000000 0.030981 -46.520112 -6.864940 6.154829 34.566485 -0.278793 5.712363 -7.102083 2.091043 0.000000 0.000000 0.000000 
-2330.803467 442.482666 1044.286987 -1.904191 19.944017 -5.382329 9.695109 13.711612 1.598199 8.817636 -2.142958 -1.143431 8.050914 2.088965 -0.192643 -4.035966 -15.235652 -1.481654 0.000000 0.000000 0.000000 -8.057759 8.117113 -6.240087 -8.812166 7.950724 -9.723178 -2.004798 -48.302675 11.057200 0.000000 0.000000 0.000000 8.149227 -11.546842 8.248678 2.106685 10.792752 41.198876 171.952467 -50.159786 133.976757 0.000000 0.000000 0.000000 11.622902 -10.296293 4.667790 8.025141 35.171978 13.915334 21.595004 20.567794 8.924274 0.000000 0.000000 0.000000 -1.030803 -46.060894 -6.268307 6.408523 34.542726 -0.873211 6.283625 -7.327372 2.305361 0.000000 0.000000 0.000000 
-2300.296631 433.893280 1036.526001 -0.057748 20.305533 -4.661457 9.520762 14.848493 1.321011 8.645380 -2.229056 -1.014222 7.540373 2.177661 -0.141558 -4.328052 -15.152316 -1.542298 0.000000 0.000000 0.000000 -8.723591 8.280189 -6.104997 -8.976251 7.982758 -9.759246 -2.070424 -48.739553 11.124144 0.000000 0.000000 0.000000 8.536548 -12.517156 7.780586 1.456874 12.553657 43.220503 171.653445 -50.322234 136.551736 0.000000 0.000000 0.000000 9.857131 -12.857251 3.521176 5.727164 42.656323 14.933122 23.606691 20.100538 9.424122 0.000000 0.000000 0.000000 -2.376685 -47.111760 -6.251174 6.302923 40.191652 -0.874572 6.573544 -9.761729 2.505157 0.000000 0.000000 0.000000 
-2270.328369 425.706512 1030.819946 1.582978 20.560495 -3.985470 9.369562 16.412193 1.286888 8.486457 -2.472737 -0.991926 7.094959 2.347102 -0.065053 -4.511244 -15.068414 -1.620108 0.000000 0.000000 0.000000 -9.096874 8.318733 -5.963197 -9.086215 8.004929 -9.629059 -2.126456 -48.864334 10.811656 0.000000 0.000000 0.000000 8.729017 -13.532265 7.163946 0.973081 14.240485 44.864273 171.631031 -50.411790 138.484885 0.000000 0.000000 0.000000 7.522888 -15.775660 2.324535 2.943071 50.433682 14.488413 23.424204 19.382090 9.628996 0.000000 0.000000 0.000000 -3.656892 -47.816327 -6.237409 6.071451 45.756670 -0.677896 6.824931 -11.893846 2.785515 0.000000 0.000000 0.000000 
-2241.245117 418.745575 1028.276978 2.538386 20.967634 -3.524464 10.214404 18.131889 1.855812 8.204016 -2.670045 -1.155534 6.199383 2.612154 0.076099 -4.542000 -14.961157 -1.720704 0.000000 0.000000 0.000000 -8.818674 8.206127 -6.081476 -9.135180 8.063744 -8.992581 -2.199390 -48.615553 9.957989 0.000000 0.000000 0.000000 8.904200 -14.894040 6.302560 0.245544 16.029051 45.790931 172.140187 -50.743249 139.724641 0.000000 0.000000 0.000000 4.716290 -19.556164 1.201299 0.044992 57.898160 12.513285 19.235557 18.246650 8.048591 0.000000 0.000000 0.000000 -4.679753 -47.422930 -6.197218 6.049991 47.905575 -0.230093 7.129183 -13.306408 3.033275 0.000000 0.000000 0.000000 
